<?xml version="1.0" encoding="utf-8"?>
<!-- Generator: Adobe Illustrator 25.0.0, SVG Export Plug-In . SVG Version: 6.00 Build 0)  -->
<svg version="1.1" id="圖層_1" xmlns="http://www.w3.org/2000/svg" xmlns:xlink="http://www.w3.org/1999/xlink" x="0px" y="0px"
	 viewBox="0 0 485.5 485.5" style="enable-background:new 0 0 485.5 485.5;" xml:space="preserve">
<style type="text/css">
	.st0{display:none;}
	.st1{fill:#FF9650;}
</style>
<g id="Background" class="st0">
</g>
<g id="Icons_Black">
</g>
<g id="Icons_White">
	<g>
		<g>
			<path class="st1" d="M166.3,171.9c-4.7,19.8-16.5,54.4-25.4,81.2h51.7c-6.2-19.5-20.1-60.6-26-81.2H166.3z"/>
		</g>
		<g>
			<path class="st1" d="M335.5,216.2c-20.4,0-29.5,15.7-31.9,30.1h44c11.2,0,15.1,0,16.2-0.3c0-0.9,0-2.1,0-2.4
				C363.9,235.1,358,216.2,335.5,216.2z"/>
		</g>
		<g>
			<path class="st1" d="M390.5,5H95C45.3,5,5,45.3,5,95v295.5c0,49.7,40.3,90,90,90h295.5c49.7,0,90-40.3,90-90V95
				C480.5,45.3,440.2,5,390.5,5z M255.2,336.4h-33.1c-1.5,0-2.4-0.6-2.9-1.8L202,285.3h-70.6L115.2,334c-0.6,1.8-1.5,2.4-3.2,2.4
				H82.4c-1.8,0-2.4-0.9-2.1-3l60.9-173.1c1.2-2.9,2.1-5.9,2.7-15.9c0-1.2,0.6-2.1,1.8-2.1h41.1c1.5,0,1.8,0.3,2.1,1.8L257,333.7
				C257.2,335.5,257,336.4,255.2,336.4z M396.4,268.5c-0.3,1.2-0.9,1.8-2.4,2.1c-4.1,0.9-16,1.2-30.4,1.2h-60
				c0.9,20.7,14.5,37.2,44.6,37.2c13.3,0,25.4-2.4,36.6-7.1c0.9-0.6,1.8-0.3,1.8,1.2v24.5c0,1.8-0.6,2.7-1.8,3.2
				c-11.2,5.3-24.2,8.6-44.3,8.6c-53.8,0-73-37.8-73-74.1c0-41.1,24.8-77.4,69.4-77.4c43.7,0,60.6,34.3,60.6,62.3
				C397.6,258.4,397.3,265.2,396.4,268.5z"/>
		</g>
	</g>
</g>
</svg>
