<?xml version="1.0" encoding="utf-8"?>
<!-- Generator: Adobe Illustrator 25.0.0, SVG Export Plug-In . SVG Version: 6.00 Build 0)  -->
<svg version="1.1" id="圖層_1" xmlns="http://www.w3.org/2000/svg" xmlns:xlink="http://www.w3.org/1999/xlink" x="0px" y="0px"
	 viewBox="0 0 485.5 485.5" style="enable-background:new 0 0 485.5 485.5;" xml:space="preserve">
<style type="text/css">
	.st0{display:none;}
	.st1{fill:#FF9650;}
</style>
<g id="Background" class="st0">
</g>
<g id="Icons_Black">
</g>
<g id="Icons_White">
	<g>
		<g>
			<path class="st1" d="M247.6,263.1c0,32.2,19.2,45.5,42.8,45.5c5.9,0,11.8-0.6,17.1-2.4v-86.6c-3.8-1.5-8.6-2.1-13.9-2.1
				C267.4,217.6,247.6,234.5,247.6,263.1z"/>
		</g>
		<g>
			<path class="st1" d="M390.5,5H95C45.3,5,5,45.3,5,95v295.5c0,49.7,40.3,90,90,90h295.5c49.7,0,90-40.3,90-90V95
				C480.5,45.3,440.2,5,390.5,5z M181.2,333.7c0,2.1-0.6,2.7-2.4,2.7h-31c-1.8,0-2.4-0.9-2.4-2.7v-189c0-2.1,0.9-2.4,2.4-2.4h31
				c1.8,0,2.4,0.6,2.4,2.4L181.2,333.7L181.2,333.7z M342.5,327.8c-19.2,8.3-38.1,11.5-55.8,11.5c-42.8,0-75.6-24.8-75.6-74.4
				c0-42.8,31.9-77.1,83.9-77.1c4.1,0,7.7,0.3,12.7,0.9v-60.6c0-1.5,0.6-2.1,1.8-2.1h32.2c1.5,0,1.5,0.6,1.5,1.8v178.4
				c0,5.9,0.6,13.6,1.2,18.9C344.2,326.6,343.9,327.2,342.5,327.8z"/>
		</g>
	</g>
</g>
</svg>
