<?xml version="1.0" encoding="utf-8"?>
<!-- Generator: Adobe Illustrator 25.0.0, SVG Export Plug-In . SVG Version: 6.00 Build 0)  -->
<svg version="1.1" id="圖層_1" xmlns="http://www.w3.org/2000/svg" xmlns:xlink="http://www.w3.org/1999/xlink" x="0px" y="0px"
	 viewBox="0 0 485.5 485.5" style="enable-background:new 0 0 485.5 485.5;" xml:space="preserve">
<style type="text/css">
	.st0{display:none;}
	.st1{fill:#FF9650;}
</style>
<g id="Background" class="st0">
</g>
<g id="Icons_Black">
</g>
<g id="Icons_White">
	<g>
		<g>
			<path class="st1" d="M390.5,5H95C45.3,5,5,45.3,5,95v295.5c0,49.7,40.3,90,90,90h295.5c49.7,0,90-40.3,90-90V95
				C480.5,45.3,440.2,5,390.5,5z M173.2,273.5c-9.4,0-11.8,0-18.6,0V334c0,1.5-0.6,2.4-2.4,2.4h-31c-1.5,0-2.4-0.6-2.4-2.1V145
				c0-1.5,0.6-2.4,2.1-2.4c11.2-0.3,33.1-0.9,54.7-0.9c57.3,0,78.6,31.9,78.6,64.4C254.1,253.1,217.8,273.5,173.2,273.5z
				 M322.7,339.4c-17.4,0-32.8-3.2-41.6-8.3c-1.5-0.9-2.1-1.5-2.1-3.2v-28.1c0-1.5,1.2-2.1,2.4-1.5c12.7,8.3,29,11.8,42.2,11.8
				c15.4,0,22.8-5.3,22.8-13c0-7.4-5.6-12.1-23.9-19.5c-32.2-11.8-43.7-25.1-43.7-46.4c0-22.4,18.3-43.4,55.2-43.4
				c17.1,0,30.1,2.4,37.2,5.9c1.5,0.9,1.8,2.1,1.8,3.5v26c0,1.5-0.9,2.4-2.7,1.8c-9.2-5-23.9-8.6-36.9-8.6c-15.7,0-21,6.5-21,12.7
				c0,6.5,4.4,10.9,23.3,18.3c33.7,12.4,45.2,25.7,45.2,46.7C380.9,321.9,359,339.4,322.7,339.4z"/>
		</g>
		<g>
			<path class="st1" d="M176.5,172.8c-10.3,0-18.6,0.3-21.9,0.6v68.5c5,0.3,8.9,0.3,18.6,0.3c24.8,0,45.8-8.3,45.8-35.2
				C219,185.4,203.6,172.8,176.5,172.8z"/>
		</g>
	</g>
</g>
</svg>
