<?xml version="1.0" encoding="utf-8"?>
<!-- Generator: Adobe Illustrator 25.0.0, SVG Export Plug-In . SVG Version: 6.00 Build 0)  -->
<svg version="1.1" id="圖層_1" xmlns="http://www.w3.org/2000/svg" xmlns:xlink="http://www.w3.org/1999/xlink" x="0px" y="0px"
	 viewBox="0 0 485.5 485.5" style="enable-background:new 0 0 485.5 485.5;" xml:space="preserve">
<style type="text/css">
	.st0{display:none;}
	.st1{fill:#FF9650;}
</style>
<g id="Background" class="st0">
</g>
<g id="Icons_Black">
</g>
<g id="Icons_White">
	<g>
		<g>
			<path class="st1" d="M188.7,172.8c-10.3,0-18.6,0.3-21.9,0.6v68.5c5,0.3,8.9,0.3,18.6,0.3c24.8,0,45.8-8.3,45.8-35.2
				C231.2,185.4,215.9,172.8,188.7,172.8z"/>
		</g>
		<g>
			<path class="st1" d="M390.5,5H95C45.3,5,5,45.3,5,95v295.5c0,49.7,40.3,90,90,90h295.5c49.7,0,90-40.3,90-90V95
				C480.5,45.3,440.2,5,390.5,5z M185.5,273.5c-9.4,0-11.8,0-18.6,0V334c0,1.5-0.6,2.4-2.4,2.4h-31c-1.5,0-2.4-0.6-2.4-2.1V145
				c0-1.5,0.6-2.4,2.1-2.4c11.2-0.3,33.1-0.9,54.6-0.9c57.3,0,78.6,31.9,78.6,64.4C266.4,253.1,230.1,273.5,185.5,273.5z M376,221.2
				c0,1.5-0.6,2.1-2.7,2.1c-21-0.6-38.4,6.8-45.2,15.7v95.1c0,1.8-0.9,2.4-2.7,2.4h-30.7c-2.1,0-2.7-0.9-2.7-2.4V232.1
				c0-12.7-0.3-29.8-1.5-39.6c0-1.5,0.3-1.8,1.8-1.8h27.8c1.8,0,2.7,0.6,3.2,2.4c1.5,3.8,2.7,11.2,3,17.7c10-12.4,26.9-23,47.3-23
				c1.8,0,2.4,0.3,2.4,2.1L376,221.2L376,221.2z"/>
		</g>
	</g>
</g>
</svg>
