<?xml version="1.0" encoding="utf-8"?>
<!-- Generator: Adobe Illustrator 25.0.0, SVG Export Plug-In . SVG Version: 6.00 Build 0)  -->
<svg version="1.1" id="圖層_1" xmlns="http://www.w3.org/2000/svg" xmlns:xlink="http://www.w3.org/1999/xlink" x="0px" y="0px"
	 viewBox="0 0 485.5 485.5" style="enable-background:new 0 0 485.5 485.5;" xml:space="preserve">
<style type="text/css">
	.st0{display:none;}
	.st1{fill:#FF9650;}
</style>
<g id="Background" class="st0">
</g>
<g id="Icons_Black">
</g>
<g id="Icons_White">
	<g>
		<g>
			<path class="st1" d="M202.9,171.9c-4.7,19.8-16.5,54.4-25.4,81.2h51.7c-6.2-19.5-20.1-60.6-26-81.2H202.9z"/>
		</g>
		<g>
			<path class="st1" d="M390.5,5H95C45.3,5,5,45.3,5,95v295.5c0,49.7,40.3,90,90,90h295.5c49.7,0,90-40.3,90-90V95
				C480.5,45.3,440.2,5,390.5,5z M291.8,336.4h-33.1c-1.5,0-2.4-0.6-2.9-1.8l-17.1-49.3H168L151.8,334c-0.6,1.8-1.5,2.4-3.2,2.4H119
				c-1.8,0-2.4-0.9-2.1-3l60.8-173.1c1.2-2.9,2.1-5.9,2.7-15.9c0-1.2,0.6-2.1,1.8-2.1h41.1c1.5,0,1.8,0.3,2.1,1.8l68.2,189.6
				C293.9,335.5,293.6,336.4,291.8,336.4z M351.2,334c0,1.8-0.6,2.4-2.7,2.4h-30.4c-2.1,0-3-0.9-3-2.7V192.8c0-1.5,0.9-2.1,2.4-2.1
				h31.3c1.8,0,2.4,0.3,2.4,2.1L351.2,334L351.2,334z M333.2,171c-12.1,0-20.1-8.3-20.1-20.4s8.6-20.4,20.4-20.4
				c12.7,0,20.1,8.6,20.1,20.4C353.5,162.7,345.6,171,333.2,171z"/>
		</g>
	</g>
</g>
</svg>
