<?xml version="1.0" encoding="utf-8"?>
<!-- Generator: Adobe Illustrator 25.0.0, SVG Export Plug-In . SVG Version: 6.00 Build 0)  -->
<svg version="1.1" id="圖層_1" xmlns="http://www.w3.org/2000/svg" xmlns:xlink="http://www.w3.org/1999/xlink" x="0px" y="0px"
	 viewBox="0 0 100 100" style="enable-background:new 0 0 100 100;" xml:space="preserve">
<style type="text/css">
	.st0{fill:#FF9650;}
</style>
<g>
	<path class="st0" d="M46.8,1.3c-0.7,4.2-1.4,8.4-2.1,12.5c-2.4,14-4.9,27.9-7.4,41.9c-0.1,0.7-0.6,1.6-1.2,1.8
		C27.6,61.2,19,64.9,9.7,68.9c12.4-23,24.5-45.4,36.6-67.8C46.5,1.1,46.7,1.2,46.8,1.3z"/>
	<path class="st0" d="M77.1,45c6.2,11.4,12.2,22.5,18.3,34c-9.8,0-19.3,0-29,0c-1-5.7-2-11.4-3-17.1C63,59,62.5,56.2,62,53.4
		c-0.3-1.3,0.1-2.1,1.4-2.6C67.9,48.9,72.4,47,77.1,45z"/>
	<path class="st0" d="M61.8,79c-8,0-15.7,0-23.8,0c0.6-3.8,1.7-7.6,1.8-11.3c0.2-5.8,2.9-9,8.4-10.4c3-0.8,5.9-2.4,9.1-3.8
		C58.9,62,60.3,70.4,61.8,79z"/>
	<path class="st0" d="M53.5,1.2C60.6,14.4,67.7,27.5,74.9,41c-4.7,2-9.2,4-14,6.1c-2.7-15.4-5.3-30.6-8-45.7
		C53.1,1.3,53.3,1.2,53.5,1.2z"/>
	<path class="st0" d="M50.1,11.4c2.2,12.4,4.3,24.7,6.5,37.4c-4.7,2-9.4,4-14.5,6.2c2.6-14.8,5.1-29.2,7.6-43.7
		C49.8,11.4,50,11.4,50.1,11.4z"/>
	<path class="st0" d="M17.1,79c0-2.9-0.9-6,0.3-7.9c1.1-1.8,4.3-2.3,6.6-3.3c4-1.7,7.9-3.4,12.3-5.2c-1,5.7-1.9,11.1-2.9,16.5
		C28,79,22.9,79,17.1,79z"/>
	<path class="st0" d="M29.9,98.9c-3.9-0.6-7.3-1.1-10.9-1.6c-0.4-4.5-0.8-8.8-1.1-13.4c4.9,0,9.5,0,14.5,0
		C31.6,88.9,30.8,93.7,29.9,98.9z"/>
	<path class="st0" d="M81.3,97.2c-3.9,0.6-7.5,1.1-11.4,1.7c-0.9-5-1.7-9.9-2.6-15c4.1,0,7.9,0,11.8,0
		C79.8,88.3,80.6,92.6,81.3,97.2z"/>
	<path class="st0" d="M85.7,95.3c-0.7-4-1.3-7.6-1.9-11.3c3.7,0,7.3,0,11.3,0C91.9,87.8,89,91.3,85.7,95.3z"/>
	<path class="st0" d="M4.6,83.8c2.9,0,5.2-0.1,7.5,0.1c0.5,0,1.4,0.9,1.4,1.4c0.4,3.1,0.5,6.2,0.3,9.5C10.8,91.3,7.9,87.8,4.6,83.8z
		"/>
	<path class="st0" d="M12.9,79c-2.9,0-5.6,0-8.3,0c0.6-4.5,4.5-4.7,7.7-6.3C12.6,74.9,12.8,76.8,12.9,79z"/>
</g>
</svg>
